<svg xmlns="http://www.w3.org/2000/svg" version="1.1" xmlns:xlink="http://www.w3.org/1999/xlink" xmlns:svgjs="http://svgjs.dev/svgjs" width="1000" height="658" viewBox="0 0 1000 658"><g transform="matrix(1,0,0,1,-0.21497384825875088,0.26640096035777105)"><svg viewBox="0 0 375 247" data-background-color="#0718c4" preserveAspectRatio="xMidYMid meet" height="658" width="1000" xmlns="http://www.w3.org/2000/svg" xmlns:xlink="http://www.w3.org/1999/xlink"><g id="tight-bounds" transform="matrix(1,0,0,1,0.08061519309703158,-0.1000015763044928)"><svg viewBox="0 0 374.83876961380594 247.2" height="247.2" width="374.83876961380594"><g><svg viewBox="0 0 395.52 260.8389310975875" height="247.2" width="374.83876961380594"><g transform="matrix(1,0,0,1,0,161.20892375724003)"><svg viewBox="0 0 395.52 99.63000734034745" height="99.63000734034745" width="395.52"><g><svg viewBox="0 0 395.52 99.63000734034745" height="99.63000734034745" width="395.52"><g><svg viewBox="0 0 395.52 99.63000734034745" height="99.63000734034745" width="395.52"><g transform="matrix(1,0,0,1,0,0)"><svg width="395.52" viewBox="2.809999942779541 -38.2599983215332 199.54000854492188 50.269996643066406" height="99.63000734034745" data-palette-color="#ffffff"><path d="M15.6 0.49L15.6 0.49Q9.67 0.49 6.24-3.13 2.81-6.74 2.81-13.16L2.81-13.16Q2.81-19.63 5.99-23.44 9.18-27.25 14.55-27.25L14.55-27.25Q19.58-27.25 22.51-23.94 25.44-20.63 25.44-15.21L25.44-15.21 25.44-12.65 7.01-12.65Q7.13-7.93 9.39-5.49 11.65-3.05 15.75-3.05L15.75-3.05Q20.07-3.05 24.29-4.86L24.29-4.86 24.29-1.25Q22.14-0.32 20.23 0.09 18.31 0.49 15.6 0.49ZM14.5-23.85L14.5-23.85Q11.28-23.85 9.36-21.75 7.45-19.65 7.1-15.94L7.1-15.94 21.09-15.94Q21.09-19.78 19.38-21.81 17.68-23.85 14.5-23.85ZM51.8 0L48.8 0 48-3.81 47.8-3.81Q45.8-1.29 43.81-0.4 41.82 0.49 38.84 0.49L38.84 0.49Q34.86 0.49 32.6-1.56 30.34-3.61 30.34-7.4L30.34-7.4Q30.34-15.5 43.31-15.89L43.31-15.89 47.85-16.04 47.85-17.7Q47.85-20.85 46.49-22.35 45.14-23.85 42.16-23.85L42.16-23.85Q38.82-23.85 34.59-21.8L34.59-21.8 33.35-24.9Q35.32-25.98 37.68-26.59 40.04-27.2 42.4-27.2L42.4-27.2Q47.19-27.2 49.5-25.07 51.8-22.95 51.8-18.26L51.8-18.26 51.8 0ZM39.65-2.86L39.65-2.86Q43.43-2.86 45.59-4.93 47.75-7.01 47.75-10.74L47.75-10.74 47.75-13.16 43.7-12.99Q38.86-12.82 36.73-11.49 34.59-10.16 34.59-7.35L34.59-7.35Q34.59-5.15 35.92-4 37.25-2.86 39.65-2.86ZM77.41-7.3L77.41-7.3Q77.41-3.56 74.63-1.54 71.85 0.49 66.82 0.49L66.82 0.49Q61.49 0.49 58.52-1.2L58.52-1.2 58.52-4.96Q60.44-3.98 62.65-3.42 64.86-2.86 66.91-2.86L66.91-2.86Q70.09-2.86 71.8-3.87 73.51-4.88 73.51-6.96L73.51-6.96Q73.51-8.52 72.15-9.63 70.8-10.74 66.87-12.26L66.87-12.26Q63.13-13.65 61.56-14.69 59.98-15.72 59.21-17.04 58.44-18.36 58.44-20.19L58.44-20.19Q58.44-23.46 61.1-25.35 63.76-27.25 68.4-27.25L68.4-27.25Q72.72-27.25 76.85-25.49L76.85-25.49 75.41-22.19Q71.38-23.85 68.11-23.85L68.11-23.85Q65.23-23.85 63.76-22.95 62.3-22.05 62.3-20.46L62.3-20.46Q62.3-19.38 62.85-18.63 63.4-17.87 64.62-17.19 65.84-16.5 69.31-15.21L69.31-15.21Q74.07-13.48 75.74-11.72 77.41-9.96 77.41-7.3ZM90.54 0.15L79.75-26.76 84.1-26.76 89.96-11.5Q91.89-6.27 92.35-3.96L92.35-3.96 92.55-3.96Q92.86-5.2 93.88-8.22 94.89-11.23 100.51-26.76L100.51-26.76 104.85-26.76 93.35 3.71Q91.64 8.23 89.36 10.12 87.08 12.01 83.76 12.01L83.76 12.01Q81.9 12.01 80.1 11.6L80.1 11.6 80.1 8.35Q81.44 8.64 83.1 8.64L83.1 8.64Q87.27 8.64 89.06 3.96L89.06 3.96 90.54 0.15ZM121.4-14.84L113.95-14.84 113.95 0 109.8 0 109.8-35.69 119.59-35.69Q126.16-35.69 129.3-33.18 132.44-30.66 132.44-25.61L132.44-25.61Q132.44-18.53 125.26-16.04L125.26-16.04 134.95 0 130.04 0 121.4-14.84ZM113.95-32.06L113.95-18.41 119.64-18.41Q124.04-18.41 126.09-20.15 128.14-21.9 128.14-25.39L128.14-25.39Q128.14-28.93 126.05-30.49 123.96-32.06 119.35-32.06L119.35-32.06 113.95-32.06ZM151.4 0.49L151.4 0.49Q145.47 0.49 142.04-3.13 138.61-6.74 138.61-13.16L138.61-13.16Q138.61-19.63 141.8-23.44 144.98-27.25 150.35-27.25L150.35-27.25Q155.38-27.25 158.31-23.94 161.24-20.63 161.24-15.21L161.24-15.21 161.24-12.65 142.81-12.65Q142.93-7.93 145.19-5.49 147.45-3.05 151.55-3.05L151.55-3.05Q155.87-3.05 160.09-4.86L160.09-4.86 160.09-1.25Q157.95-0.32 156.03 0.09 154.11 0.49 151.4 0.49ZM150.3-23.85L150.3-23.85Q147.08-23.85 145.17-21.75 143.25-19.65 142.91-15.94L142.91-15.94 156.9-15.94Q156.9-19.78 155.19-21.81 153.48-23.85 150.3-23.85ZM180.21-26.76L180.21-23.61 173.4-23.61 173.4 0 169.35 0 169.35-23.61 164.56-23.61 164.56-25.44 169.35-26.9 169.35-28.39Q169.35-38.26 177.96-38.26L177.96-38.26Q180.09-38.26 182.94-37.4L182.94-37.4 181.89-34.16Q179.55-34.91 177.89-34.91L177.89-34.91Q175.6-34.91 174.5-33.39 173.4-31.86 173.4-28.49L173.4-28.49 173.4-26.76 180.21-26.76ZM202.35-7.3L202.35-7.3Q202.35-3.56 199.57-1.54 196.78 0.49 191.75 0.49L191.75 0.49Q186.43 0.49 183.45-1.2L183.45-1.2 183.45-4.96Q185.38-3.98 187.59-3.42 189.8-2.86 191.85-2.86L191.85-2.86Q195.03-2.86 196.74-3.87 198.44-4.88 198.44-6.96L198.44-6.96Q198.44-8.52 197.09-9.63 195.73-10.74 191.8-12.26L191.8-12.26Q188.07-13.65 186.49-14.69 184.92-15.72 184.15-17.04 183.38-18.36 183.38-20.19L183.38-20.19Q183.38-23.46 186.04-25.35 188.7-27.25 193.34-27.25L193.34-27.25Q197.66-27.25 201.79-25.49L201.79-25.49 200.35-22.19Q196.32-23.85 193.05-23.85L193.05-23.85Q190.17-23.85 188.7-22.95 187.24-22.05 187.24-20.46L187.24-20.46Q187.24-19.38 187.79-18.63 188.34-17.87 189.56-17.19 190.78-16.5 194.25-15.21L194.25-15.21Q199.01-13.48 200.68-11.72 202.35-9.96 202.35-7.3Z" opacity="1" transform="matrix(1,0,0,1,0,0)" fill="#ffffff" class="undefined-text-0" data-fill-palette-color="primary" id="text-0"></path></svg></g></svg></g></svg></g></svg></g><g transform="matrix(1,0,0,1,128.9156649278199,0)"><svg viewBox="0 0 137.68867014436017 137.68867014436017" height="137.68867014436017" width="137.68867014436017"><g><svg></svg></g><g id="icon-0"><svg viewBox="0 0 137.68867014436017 137.68867014436017" height="137.68867014436017" width="137.68867014436017"><g><path xmlns="http://www.w3.org/2000/svg" d="M41.307 137.689c-22.813 0-41.307-18.494-41.307-41.307v-55.075c0-22.813 18.494-41.307 41.307-41.307h55.075c22.813 0 41.307 18.494 41.307 41.307v55.075c0 22.813-18.494 41.307-41.307 41.307z" fill="#ffffff" fill-rule="nonzero" stroke="none" stroke-width="1" stroke-linecap="butt" stroke-linejoin="miter" stroke-miterlimit="10" stroke-dasharray="" stroke-dashoffset="0" font-family="none" font-weight="none" font-size="none" text-anchor="none" style="mix-blend-mode: normal" data-fill-palette-color="accent"></path></g><g transform="matrix(1,0,0,1,30.957474272180093,31.020012955410515)"><svg viewBox="0 0 75.77372159999999 75.64864423353914" height="75.64864423353914" width="75.77372159999999"><g><svg xmlns="http://www.w3.org/2000/svg" xmlns:xlink="http://www.w3.org/1999/xlink" version="1.1" x="0" y="0" viewBox="0 0.20499849319458008 99.95999908447266 99.79499816894531" enable-background="new 0 0 100 100" xml:space="preserve" height="75.64864423353914" width="75.77372159999999" class="icon-a-0" data-fill-palette-color="quaternary" id="a-0"><g fill="#0718c4" data-fill-palette-color="quaternary"><circle cx="49.98" cy="50.02" r="8.3" fill="#0718c4" data-fill-palette-color="quaternary"></circle><path d="M57.492 7.246c0 3.889-3.152 26.404-7.041 26.404-3.888 0-7.041-22.516-7.041-26.404s3.153-7.041 7.041-7.041C54.34 0.205 57.492 3.357 57.492 7.246z" fill="#0718c4" data-fill-palette-color="quaternary"></path><path d="M43.41 92.958c0-3.889 3.153-26.403 7.041-26.403 3.889 0 7.041 22.515 7.041 26.403S54.34 100 50.451 100C46.563 100 43.41 96.847 43.41 92.958z" fill="#0718c4" data-fill-palette-color="quaternary"></path><path d="M85.757 24.872c-2.791 2.707-21.142 16.131-23.849 13.341-2.708-2.79 11.248-20.736 14.038-23.445 2.79-2.707 7.249-2.643 9.956 0.148C88.612 17.705 88.546 22.163 85.757 24.872z" fill="#0718c4" data-fill-palette-color="quaternary"></path><path d="M14.773 75.181c2.79-2.708 21.14-16.129 23.849-13.342 2.707 2.792-11.249 20.736-14.039 23.445-2.789 2.71-7.247 2.645-9.955-0.146C11.919 82.348 11.985 77.892 14.773 75.181z" fill="#0718c4" data-fill-palette-color="quaternary"></path><path d="M74.163 86.315c-2.63-2.866-15.548-21.574-12.685-24.207C64.342 59.479 81.9 73.92 84.53 76.785c2.633 2.861 2.445 7.316-0.416 9.947C81.25 89.364 76.797 89.177 74.163 86.315z" fill="#0718c4" data-fill-palette-color="quaternary"></path><path d="M24.717 14.668c2.716 2.781 16.189 21.094 13.407 23.809-2.781 2.717-20.767-11.188-23.483-13.973-2.717-2.779-2.664-7.239 0.12-9.957C17.542 11.832 22.002 11.885 24.717 14.668z" fill="#0718c4" data-fill-palette-color="quaternary"></path><path d="M7.041 42.756c3.89 0 26.403 3.154 26.403 7.042 0 3.889-22.514 7.042-26.403 7.042C3.153 56.84 0 53.687 0 49.798 0 45.91 3.153 42.756 7.041 42.756z" fill="#0718c4" data-fill-palette-color="quaternary"></path><path d="M92.918 57.059c-3.889 0-26.402-3.15-26.402-7.039s22.514-7.041 26.402-7.041c3.89 0 7.042 3.152 7.042 7.041S96.808 57.059 92.918 57.059z" fill="#0718c4" data-fill-palette-color="quaternary"></path></g></svg></g></svg></g></svg></g></svg></g><g></g></svg></g><defs></defs></svg><rect width="374.83876961380594" height="247.2" fill="none" stroke="none" visibility="hidden"></rect></g></svg></g></svg>